Coordinates
version=1
nRows=14
nColumns=24
inDegrees=yes

Units are S.I. units (second, meters, Newtons, ...)
Angles are in degrees.

endheader
time	pelvis_tilt	pelvis_list	pelvis_rotation	pelvis_tx	pelvis_ty	pelvis_tz	hip_flexion_r	hip_adduction_r	hip_rotation_r	knee_angle_r	ankle_angle_r	subtalar_angle_r	mtp_angle_r	hip_flexion_l	hip_adduction_l	hip_rotation_l	knee_angle_l	ankle_angle_l	subtalar_angle_l	mtp_angle_l	lumbar_extension	lumbar_bending	lumbar_rotation
      0.45800000	     -0.67099938	      5.02959624	     -4.07344531	     -0.82183675	      1.02945155	      0.30547097	     29.70907279	     -2.51462850	      0.49015156	     -8.02284443	      8.77090689	      1.23849182	     12.36104795	    -17.39455275	      6.95028313	     -2.08241315	     -3.87746842	     19.61033882	      8.88715219	      3.57097984	    -19.67401723	     -4.32626670	     -3.77116292
      0.46216667	     -0.65470494	      4.99239726	     -3.98159849	     -0.81576605	      1.02851616	      0.30563262	     29.76046601	     -2.44509262	      0.60791275	     -8.43636635	      8.66226125	      0.99721800	     12.36333441	    -17.51064458	      6.86312999	     -2.13190577	     -4.45492352	     19.85035538	      9.17566200	      3.62374321	    -19.69647622	     -4.14528659	     -3.84058001
      0.46633333	     -0.61445868	      4.94713790	     -3.89253541	     -0.80967158	      1.02765069	      0.30580633	     29.78360288	     -2.36972027	      0.72277188	     -8.91283240	      8.53155860	      0.74050680	     12.37532891	    -17.64108522	      6.76576226	     -2.21201341	     -5.05217188	     20.07776191	      9.51044688	      3.70296115	    -19.74759085	     -3.96019278	     -3.85163622
      0.47050000	     -0.60291458	      4.90008961	     -3.79306038	     -0.80351562	      1.02678647	      0.30597447	     29.82946040	     -2.29525840	      0.83659762	     -9.44118290	      8.36013157	      0.45033302	     12.39410036	    -17.72121896	      6.65924837	     -2.28030108	     -5.70312790	     20.28684158	      9.82553554	      3.80007655	    -19.75309418	     -3.76501686	     -3.88407195
      0.47466667	     -0.56906212	      4.83551439	     -3.69207627	     -0.79730961	      1.02600691	      0.30615586	     29.83662725	     -2.20680827	      0.94676641	    -10.00115413	      8.14002653	      0.12367626	     12.42222811	    -17.81481370	      6.53095840	     -2.37283831	     -6.37761756	     20.47509614	     10.16135331	      3.93134266	    -19.79000340	     -3.54899455	     -3.89865633
      0.47883333	     -0.55145408	      4.76636635	     -3.59034367	     -0.79105467	      1.02524364	      0.30635350	     29.85602990	     -2.11323071	      1.05982796	    -10.60373769	      7.87972327	     -0.21609754	     12.45613745	    -17.88084695	      6.39411401	     -2.45287274	     -7.08041376	     20.63004826	     10.48175313	      4.08580341	    -19.80644541	     -3.32504680	     -3.90304533
      0.48300000	     -0.53328028	      4.69285163	     -3.48324547	     -0.78474213	      1.02453883	      0.30655206	     29.86345186	     -2.01965572	      1.15576750	    -11.23216264	      7.56960056	     -0.58857926	     12.49421936	    -17.92946863	      6.24783462	     -2.55681243	     -7.82110020	     20.75657638	     10.79390933	      4.26718892	    -19.80186543	     -3.09595659	     -3.91344113
      0.48716667	     -0.50237973	      4.61047348	     -3.37272493	     -0.77841875	      1.02389863	      0.30676498	     29.85119701	     -1.92130459	      1.24588852	    -11.88610669	      7.21780439	     -0.96924640	     12.53628870	    -17.97351648	      6.08641461	     -2.66846616	     -8.60029718	     20.86326614	     11.13054733	      4.48464245	    -19.82288273	     -2.85348726	     -3.91321135
      0.49133333	     -0.49417310	      4.52681565	     -3.25996176	     -0.77202925	      1.02327543	      0.30697888	     29.85959810	     -1.82378914	      1.32130993	    -12.56921479	      6.82626459	     -1.35071493	     12.57233287	    -17.98537002	      5.92244809	     -2.75339051	     -9.40318621	     20.92249611	     11.41006055	      4.70674416	    -19.79801471	     -2.60729231	     -3.90323928
      0.49550000	     -0.46276267	      4.44064896	     -3.14398949	     -0.76563899	      1.02274508	      0.30722738	     29.83114617	     -1.72667229	      1.40811160	    -13.25265191	      6.40214273	     -1.74120769	     12.62143409	    -17.98049844	      5.74346802	     -2.91346613	    -10.28718483	     20.96264683	     11.78982701	      5.04192188	    -19.82877489	     -2.36967540	     -3.88964154
      0.49966667	     -0.45793797	      4.33921404	     -3.03224576	     -0.75916810	      1.02222046	      0.30748007	     29.83191489	     -1.61471952	      1.46338285	    -13.96779766	      5.94956390	     -2.13862448	     12.65604356	    -17.95248313	      5.55088249	     -3.03911517	    -11.16597601	     20.95060520	     12.07474822	      5.37456257	    -19.79245328	     -2.09673060	     -3.87583689
      0.50383333	     -0.40594321	      4.24792137	     -2.92258339	     -0.75272473	      1.02181876	      0.30775510	     29.78748412	     -1.52058001	      1.49225546	    -14.70500858	      5.48375125	     -2.48524396	     12.69813988	    -17.94000808	      5.36157956	     -3.21945059	    -12.10501768	     20.91158747	     12.45714987	      5.91004671	    -19.83247460	     -1.86021276	     -3.83699519
      0.50800000	     -0.42083005	      4.14129712	     -2.80281368	     -0.74619385	      1.02138263	      0.30803525	     29.80088851	     -1.41025328	      1.53233030	    -15.44160655	      5.00956289	     -2.87607784	     12.71119083	    -17.84319356	      5.15117219	     -3.35125857	    -13.08194949	     20.80586553	     12.70237058	      6.35924981	    -19.76482203	     -1.57968267	     -3.82107811
      0.51216667	     -0.41914383	      4.02237708	     -2.68731632	     -0.73963623	      1.02102837	      0.30831965	     29.80011569	     -1.29514712	      1.51962380	    -16.20028262	      4.55602110	     -3.19814773	     12.70612685	    -17.74152764	      4.92527154	     -3.50616141	    -14.10011342	     20.66890611	     12.95751475	      6.75433894	    -19.71036749	     -1.27787590	     -3.77547555
